<svg width="180" height="27" viewBox="0 0 180 27" fill="none" xmlns="http://www.w3.org/2000/svg">
<path d="M73.7621 23.1897H82.1591V25.7402H70.623V1.72641H73.7621V23.1897Z" fill="black"/>
<path d="M91.9734 26.0549C90.211 26.0549 88.612 25.656 87.1733 24.8516C85.7346 24.0407 84.6032 22.8995 83.7857 21.4248C82.9748 19.9436 82.5693 18.2269 82.5693 16.2716C82.5693 14.3358 82.9879 12.6322 83.825 11.1575C84.6686 9.67627 85.813 8.53836 87.2518 7.74378C88.697 6.95248 90.3189 6.55356 92.1173 6.55356C93.9026 6.55356 95.5212 6.95248 96.9698 7.74378C98.415 8.53836 99.5595 9.673 100.397 11.1444C101.234 12.6093 101.652 14.3195 101.652 16.2716C101.652 18.2269 101.221 19.9436 100.357 21.4248C99.5006 22.8995 98.3366 24.0407 96.8651 24.8516C95.4002 25.656 93.7686 26.0549 91.9734 26.0549ZM91.9734 23.2952C93.0983 23.2952 94.1511 23.0336 95.1386 22.5104C96.1327 21.9807 96.9338 21.1861 97.5453 20.13C98.1534 19.0673 98.4608 17.7822 98.4608 16.2716C98.4608 14.7543 98.16 13.4693 97.5583 12.4131C96.9632 11.3504 96.185 10.5624 95.2171 10.0458C94.2492 9.53239 93.2029 9.27407 92.0781 9.27407C90.9336 9.27407 89.884 9.53239 88.9259 10.0458C87.9744 10.5624 87.2125 11.3504 86.637 12.4131C86.0615 13.4693 85.7738 14.7543 85.7738 16.2716C85.7738 17.8084 86.0517 19.1032 86.6109 20.1561C87.1766 21.2123 87.9319 22.0003 88.8736 22.5235C89.8153 23.0401 90.8486 23.2952 91.9734 23.2952Z" fill="black"/>
<path d="M102.858 16.2716C102.858 14.3195 103.244 12.6159 104.022 11.1575C104.807 9.69262 105.893 8.56125 107.279 7.75686C108.672 6.95575 110.268 6.55356 112.066 6.55356C114.385 6.55356 116.294 7.11597 117.795 8.2408C119.302 9.36563 120.297 10.9286 120.777 12.9232H117.403C117.079 11.7722 116.451 10.8665 115.519 10.2027C114.594 9.5422 113.443 9.20868 112.066 9.20868C110.268 9.20868 108.816 9.82341 107.711 11.0529C106.612 12.2823 106.063 14.0219 106.063 16.2716C106.063 18.5408 106.612 20.2967 107.711 21.5426C108.816 22.7818 110.268 23.3998 112.066 23.3998C113.443 23.3998 114.591 23.0794 115.506 22.432C116.422 21.7878 117.053 20.869 117.403 19.6722H120.777C120.27 21.608 119.26 23.1579 117.743 24.3154C116.226 25.4762 114.332 26.0549 112.066 26.0549C110.268 26.0549 108.672 25.656 107.279 24.8516C105.893 24.0407 104.807 22.9028 104.022 21.4379C103.244 19.9665 102.858 18.2433 102.858 16.2716Z" fill="black"/>
<path d="M133.73 25.7414L126.328 17.4098V25.7414H123.188V0.249634H126.328V15.2386L133.587 6.86781H137.968L129.074 16.2719L137.994 25.7414H133.73Z" fill="black"/>
<path d="M144.446 1.55734V16.0232C144.446 17.4717 144.799 18.5867 145.505 19.3715C146.218 20.1497 147.264 20.5356 148.644 20.5356C150.021 20.5356 151.077 20.1497 151.809 19.3715C152.548 18.5867 152.921 17.4717 152.921 16.0232V1.55734H158.807V15.997C158.807 18.1518 158.343 19.9797 157.42 21.4773C156.505 22.9683 155.269 24.0932 153.719 24.8518C152.176 25.6038 150.449 25.9766 148.54 25.9766C146.636 25.9766 144.933 25.6071 143.425 24.8648C141.925 24.116 140.734 22.9912 139.855 21.4904C138.982 19.983 138.547 18.1518 138.547 15.997V1.55734H144.446Z" fill="black"/>
<path d="M179.61 9.33959C179.61 10.7456 179.286 12.0274 178.642 13.1849C178.004 14.3457 177.02 15.2842 175.686 15.997C174.352 16.7033 172.697 17.0564 170.729 17.0564H167.079V25.7412H161.181V1.55734H170.729C172.655 1.55734 174.286 1.89414 175.62 2.56446C176.954 3.22824 177.952 4.1438 178.616 5.31113C179.276 6.48174 179.61 7.82238 179.61 9.33959ZM170.284 12.374C171.409 12.374 172.246 12.1124 172.795 11.5892C173.345 11.0595 173.619 10.3075 173.619 9.33959C173.619 8.38152 173.345 7.636 172.795 7.10301C172.246 6.57329 171.409 6.30517 170.284 6.30517H167.079V12.374H170.284Z" fill="black"/>
<mask id="mask0_148_5872" style="mask-type:luminance" maskUnits="userSpaceOnUse" x="33" y="1" width="27" height="26">
<path d="M33.7749 1.3927H59.1326V26.7504H33.7749V1.3927Z" fill="white"/>
</mask>
<g mask="url(#mask0_148_5872)">
<mask id="mask1_148_5872" style="mask-type:luminance" maskUnits="userSpaceOnUse" x="33" y="1" width="27" height="26">
<path d="M46.4516 1.3942C39.4509 1.3942 33.7744 7.07066 33.7744 14.0747C33.7744 21.0754 39.4509 26.7519 46.4516 26.7519C53.4556 26.7519 59.1321 21.0754 59.1321 14.0747C59.1321 7.07066 53.4556 1.3942 46.4516 1.3942Z" fill="white"/>
</mask>
<g mask="url(#mask1_148_5872)">
<path d="M33.7744 1.3942H59.1321V26.7519H33.7744V1.3942Z" fill="black"/>
</g>
</g>
<mask id="mask2_148_5872" style="mask-type:luminance" maskUnits="userSpaceOnUse" x="32" y="8" width="24" height="15">
<path d="M32 8.55911H55.7914V22.9138H32V8.55911Z" fill="white"/>
</mask>
<g mask="url(#mask2_148_5872)">
<path fill-rule="evenodd" clip-rule="evenodd" d="M32.5064 22.4265C32.9675 22.8875 33.7196 22.8875 34.1806 22.4265L40.498 16.1091L44.994 20.1049C45.4747 20.5299 46.2071 20.4972 46.6453 20.0297L53.4793 12.7379V13.8889C53.4793 14.5428 54.009 15.0726 54.663 15.0726C55.3202 15.0726 55.8499 14.5428 55.8499 13.8889V9.74271C55.8499 9.08874 55.3202 8.55902 54.663 8.55902H50.5201C49.8628 8.55902 49.3331 9.08874 49.3331 9.74271C49.3331 10.3967 49.8628 10.9264 50.5201 10.9264H51.9294L45.7068 17.5675L41.2369 13.5946C40.7694 13.1793 40.0565 13.1989 39.6118 13.6436L32.5064 20.7523C32.0421 21.2133 32.0421 21.9621 32.5064 22.4265Z" fill="white"/>
</g>
</svg>
