<svg width="21" height="21" viewBox="0 0 21 21" fill="none" xmlns="http://www.w3.org/2000/svg">
<path d="M6.125 3C5.2962 3 4.50134 3.32924 3.91529 3.91529C3.32924 4.50134 3 5.2962 3 6.125V14.875C3 15.7038 3.32924 16.4987 3.91529 17.0847C4.50134 17.6708 5.2962 18 6.125 18H14.875C15.7038 18 16.4987 17.6708 17.0847 17.0847C17.6708 16.4987 18 15.7038 18 14.875V6.125C18 5.2962 17.6708 4.50134 17.0847 3.91529C16.4987 3.32924 15.7038 3 14.875 3H6.125ZM4.25 6.125C4.25 5.62772 4.44754 5.15081 4.79917 4.79917C5.15081 4.44754 5.62772 4.25 6.125 4.25H14.875C15.3723 4.25 15.8492 4.44754 16.2008 4.79917C16.5525 5.15081 16.75 5.62772 16.75 6.125V14.875C16.75 15.3723 16.5525 15.8492 16.2008 16.2008C15.8492 16.5525 15.3723 16.75 14.875 16.75H6.125C5.62772 16.75 5.15081 16.5525 4.79917 16.2008C4.44754 15.8492 4.25 15.3723 4.25 14.875V6.125ZM6.75 6.75C6.58424 6.75 6.42527 6.81585 6.30806 6.93306C6.19085 7.05027 6.125 7.20924 6.125 7.375C6.125 7.54076 6.19085 7.69973 6.30806 7.81694C6.42527 7.93415 6.58424 8 6.75 8H14.25C14.4158 8 14.5747 7.93415 14.6919 7.81694C14.8092 7.69973 14.875 7.54076 14.875 7.375C14.875 7.20924 14.8092 7.05027 14.6919 6.93306C14.5747 6.81585 14.4158 6.75 14.25 6.75H6.75Z" fill="#3A3A3A"/>
</svg>
