<svg width="18" height="18" fill="none" xmlns="http://www.w3.org/2000/svg"><path d="M14.625 4.125l-.465 7.519c-.119 1.92-.178 2.881-.66 3.572a3 3 0 01-.9.846c-.718.438-1.68.438-3.605.438-1.928 0-2.891 0-3.61-.439a3 3 0 01-.901-.847c-.481-.692-.54-1.654-.656-3.578l-.453-7.511M2.25 4.125h13.5m-3.708 0l-.512-1.056c-.34-.702-.51-1.053-.804-1.271a1.505 1.505 0 00-.206-.13C10.195 1.5 9.806 1.5 9.026 1.5c-.8 0-1.199 0-1.53.176a1.5 1.5 0 00-.208.134c-.297.228-.463.591-.794 1.318l-.454.997M7.125 12.375v-4.5M10.875 12.375v-4.5" stroke="#F04438" stroke-linecap="round"/></svg>