<svg width="25" height="25" viewBox="0 0 25 25" fill="none" xmlns="http://www.w3.org/2000/svg">
<path d="M11.3651 6.84283C11.2473 6.50812 11.0286 6.21821 10.739 6.0131C10.4495 5.80799 10.1034 5.69778 9.74857 5.69768H8.42C8.0431 5.69874 7.67984 5.8388 7.39978 6.09104C7.11973 6.34327 6.94257 6.68995 6.90223 7.06469C6.86189 7.43942 6.96121 7.81587 7.18116 8.12193C7.40112 8.42799 7.72624 8.64215 8.09428 8.7234L10.1137 9.16568C10.5269 9.25587 10.8922 9.49563 11.1393 9.83885C11.3865 10.1821 11.498 10.6045 11.4525 11.025C11.407 11.4455 11.2076 11.8343 10.8928 12.1167C10.5779 12.3991 10.1698 12.5551 9.74685 12.5548H8.60343C8.249 12.555 7.90324 12.4453 7.61374 12.2408C7.32424 12.0363 7.10523 11.7472 6.98685 11.4131M9.17771 5.69768V3.9834M9.17771 14.2691V12.5548M12.4469 23.6411V14.6411C12.4469 14.0728 12.6726 13.5277 13.0745 13.1259C13.4763 12.724 14.0214 12.4983 14.5897 12.4983C15.158 12.4983 15.7031 12.724 16.1049 13.1259C16.5068 13.5277 16.7326 14.0728 16.7326 14.6411V19.3554H20.1611C21.0705 19.3554 21.9425 19.7166 22.5855 20.3596C23.2285 21.0026 23.5897 21.8747 23.5897 22.784V23.6411" stroke="#3A3A3A" stroke-linecap="round" stroke-linejoin="round"/>
<path d="M9.17945 16.8952C7.59782 16.895 6.05393 16.4119 4.75423 15.5106C3.45452 14.6093 2.46093 13.3328 1.90631 11.8515C1.35169 10.3703 1.26246 8.75511 1.65056 7.22183C2.03866 5.68855 2.88559 4.31028 4.07811 3.2713C5.27063 2.23233 6.75191 1.58216 8.32391 1.40774C9.8959 1.23331 11.4837 1.54293 12.875 2.29521C14.2662 3.04749 15.3947 4.20657 16.1095 5.61748C16.8243 7.02839 17.0913 8.62388 16.8749 10.1906" stroke="#3A3A3A" stroke-linecap="round"/>
</svg>
