<svg width="20" height="21" viewBox="0 0 20 21" fill="none" xmlns="http://www.w3.org/2000/svg">
<path d="M5 7.16602H8.33333" stroke="white" stroke-width="1.5" stroke-linecap="round" stroke-linejoin="round"/>
<path d="M17.3608 8H15.1925C13.705 8 12.5 9.11917 12.5 10.5C12.5 11.8808 13.7058 13 15.1917 13H17.3608C17.4308 13 17.465 13 17.4942 12.9983C17.9442 12.9708 18.3025 12.6383 18.3317 12.2208C18.3333 12.1942 18.3333 12.1617 18.3333 12.0975V8.9025C18.3333 8.83833 18.3333 8.80583 18.3317 8.77917C18.3017 8.36167 17.9442 8.02917 17.4942 8.00167C17.4658 8 17.4308 8 17.3608 8Z" stroke="white" stroke-width="1.5"/>
<path d="M17.4709 7.99967C17.4059 6.43967 17.1976 5.48301 16.5234 4.80967C15.5476 3.83301 13.9759 3.83301 10.8334 3.83301H8.33341C5.19091 3.83301 3.61925 3.83301 2.64341 4.80967C1.66758 5.78634 1.66675 7.35717 1.66675 10.4997C1.66675 13.6422 1.66675 15.2138 2.64341 16.1897C3.62008 17.1655 5.19091 17.1663 8.33341 17.1663H10.8334C13.9759 17.1663 15.5476 17.1663 16.5234 16.1897C17.1976 15.5163 17.4067 14.5597 17.4709 12.9997" stroke="white" stroke-width="1.5"/>
<path d="M14.9927 10.5H15.001" stroke="white" stroke-width="2" stroke-linecap="round" stroke-linejoin="round"/>
</svg>
