<svg xmlns="http://www.w3.org/2000/svg" width="44" height="56" viewBox="0 0 44 56" fill="none">
<path d="M5 0C2.23733 0 0 2.24 0 5V51C0 53.76 2.24 56 5 56H39C41.76 56 44 53.76 44 51V30C44 27.3478 42.9464 24.8043 41.0711 22.9289C39.1957 21.0536 36.6522 20 34 20H29C27.6739 20 26.4021 19.4732 25.4645 18.5355C24.5268 17.5979 24 16.3261 24 15V10C24 7.34784 22.9464 4.8043 21.0711 2.92893C19.1957 1.05357 16.6522 0 14 0H5Z" fill="#859AA5"/>
<path d="M24.5894 0.842773C26.7934 3.38401 28.0047 6.63623 28 10.0001V15.0001C28 15.5521 28.448 16.0001 29 16.0001H34C37.3639 15.9954 40.6161 17.2067 43.1574 19.4108C41.9836 14.9489 39.6461 10.8788 36.3837 7.6164C33.1214 4.35405 29.0512 2.01652 24.5894 0.842773Z" fill="#859AA5"/>
</svg>