<svg width="48" height="49" viewBox="0 0 48 49" fill="none" xmlns="http://www.w3.org/2000/svg">
<rect y="0.5" width="48" height="48" rx="24" fill="#F0E6F9"/>
<path d="M31.0832 20.3333L31.0832 28.6667C31.0832 31.1667 29.8332 32.8333 26.9165 32.8333H21.0832C18.1665 32.8333 16.9165 31.1667 16.9165 28.6667L16.9165 20.3333C16.9165 17.8333 18.1665 16.1667 21.0832 16.1667L26.9165 16.1667C29.8332 16.1667 31.0832 17.8333 31.0832 20.3333Z" stroke="#7D2ECC" stroke-width="1.5" stroke-miterlimit="10" stroke-linecap="round" stroke-linejoin="round"/>
<path d="M26.5 24.5C26.5 23.1193 25.3807 22 24 22C22.6193 22 21.5 23.1193 21.5 24.5C21.5 25.8807 22.6193 27 24 27C25.3807 27 26.5 25.8807 26.5 24.5Z" stroke="#7D2ECC" stroke-width="1.5" stroke-miterlimit="10" stroke-linecap="round" stroke-linejoin="round"/>
<path d="M19 27.4167V28.6667C19 29.8167 19.9333 30.75 21.0833 30.75H22.3333" stroke="#7D2ECC" stroke-width="1.5" stroke-miterlimit="10" stroke-linecap="round" stroke-linejoin="round"/>
<path d="M19 21.5833V20.3333C19 19.1833 19.9333 18.25 21.0833 18.25H22.3333" stroke="#7D2ECC" stroke-width="1.5" stroke-miterlimit="10" stroke-linecap="round" stroke-linejoin="round"/>
<path d="M28.9998 27.4167V28.6667C28.9998 29.8167 28.0665 30.75 26.9165 30.75H25.6665" stroke="#7D2ECC" stroke-width="1.5" stroke-miterlimit="10" stroke-linecap="round" stroke-linejoin="round"/>
<path d="M28.9998 21.5833V20.3333C28.9998 19.1833 28.0665 18.25 26.9165 18.25H25.6665" stroke="#7D2ECC" stroke-width="1.5" stroke-miterlimit="10" stroke-linecap="round" stroke-linejoin="round"/>
</svg>
