<svg width="23" height="22" viewBox="0 0 23 22" fill="none" xmlns="http://www.w3.org/2000/svg">
<path d="M6.45398 17.7918L9.76913 20.3584C10.1969 20.7861 11.1594 21 11.801 21H15.8647C17.148 21 18.5382 20.0375 18.8591 18.7543L21.4256 10.9476C21.9603 9.45045 20.9979 8.16716 19.3938 8.16716H15.1161C14.4745 8.16716 13.9398 7.63246 14.0467 6.88388L14.5814 3.46179C14.7953 2.49932 14.1537 1.42992 13.1912 1.1091C12.3357 0.788278 11.2663 1.21604 10.8385 1.85768L6.45398 8.38104" stroke="#212529" stroke-width="1.5"/>
<path d="M1 7.31214C1 5.81498 1.64164 5.28027 3.13881 5.28027H4.20821C5.70537 5.28027 6.34702 5.81498 6.34702 7.31214V17.7923C6.34702 19.2895 5.70537 19.8242 4.20821 19.8242H3.13881C1.64164 19.8242 1 19.2895 1 17.7923V7.31214Z" stroke="#212529" stroke-width="1.5" stroke-linecap="round" stroke-linejoin="round"/>
</svg>
