<svg width="4" height="14" viewBox="0 0 4 14" fill="none" xmlns="http://www.w3.org/2000/svg">
<path d="M0.666626 11.6667C0.666626 12.4 1.26663 13 1.99996 13C2.73329 13 3.33329 12.4 3.33329 11.6667C3.33329 10.9333 2.73329 10.3333 1.99996 10.3333C1.26663 10.3333 0.666626 10.9333 0.666626 11.6667Z" stroke="#999999"/>
<path d="M0.666626 2.33333C0.666626 3.06667 1.26663 3.66667 1.99996 3.66667C2.73329 3.66667 3.33329 3.06667 3.33329 2.33333C3.33329 1.6 2.73329 1 1.99996 1C1.26663 1 0.666626 1.6 0.666626 2.33333Z" stroke="#999999"/>
<path d="M0.666626 7C0.666626 7.73333 1.26663 8.33333 1.99996 8.33333C2.73329 8.33333 3.33329 7.73333 3.33329 7C3.33329 6.26667 2.73329 5.66667 1.99996 5.66667C1.26663 5.66667 0.666626 6.26667 0.666626 7Z" stroke="#999999"/>
</svg>