<svg width="24" height="25" viewBox="0 0 24 25" fill="none" xmlns="http://www.w3.org/2000/svg">
<path d="M16.017 2.08203H7.947C6.37015 2.08388 4.85844 2.71117 3.74353 3.82627C2.62862 4.94136 2.00159 6.45318 2 8.03003L2 16.1C2.00185 17.6769 2.62914 19.1886 3.74424 20.3035C4.85933 21.4184 6.37115 22.0454 7.948 22.047H16.018C17.5948 22.0452 19.1066 21.4179 20.2215 20.3028C21.3364 19.1877 21.9634 17.6759 21.965 16.099V8.02903C21.9631 6.45218 21.3359 4.94047 20.2208 3.82556C19.1057 2.71065 17.5938 2.08362 16.017 2.08203V2.08203ZM19.957 16.099C19.957 16.6164 19.8551 17.1288 19.6571 17.6068C19.4591 18.0848 19.1689 18.5192 18.803 18.885C18.4371 19.2509 18.0028 19.5411 17.5248 19.7391C17.0468 19.9371 16.5344 20.039 16.017 20.039H7.947C6.90222 20.0388 5.90032 19.6235 5.16165 18.8847C4.42297 18.1458 4.008 17.1438 4.008 16.099V8.02903C4.00827 6.98425 4.42349 5.98235 5.16235 5.24368C5.90122 4.505 6.90322 4.09003 7.948 4.09003H16.018C17.0628 4.0903 18.0647 4.50552 18.8034 5.24438C19.542 5.98325 19.957 6.98525 19.957 8.03003V16.1V16.099Z" fill="white"/>
<path d="M11.9821 6.90137C10.6135 6.90348 9.3016 7.44815 8.33397 8.41597C7.36633 9.38379 6.82192 10.6958 6.82007 12.0644C6.82166 13.4333 7.36609 14.7457 8.33397 15.7138C9.30185 16.6818 10.6142 17.2265 11.9831 17.2284C13.3522 17.2268 14.6647 16.6822 15.6328 15.7141C16.6009 14.746 17.1455 13.4335 17.1471 12.0644C17.145 10.6955 16.6 9.38325 15.6318 8.41556C14.6635 7.44787 13.351 6.90369 11.9821 6.90237V6.90137ZM11.9821 15.2204C11.1453 15.2204 10.3428 14.888 9.75115 14.2963C9.15947 13.7046 8.82707 12.9021 8.82707 12.0654C8.82707 11.2286 9.15947 10.4261 9.75115 9.83445C10.3428 9.24277 11.1453 8.91037 11.9821 8.91037C12.8188 8.91037 13.6213 9.24277 14.213 9.83445C14.8047 10.4261 15.1371 11.2286 15.1371 12.0654C15.1371 12.9021 14.8047 13.7046 14.213 14.2963C13.6213 14.888 12.8188 15.2204 11.9821 15.2204Z" fill="white"/>
<path d="M17.1559 8.17712C17.8391 8.17712 18.3929 7.6233 18.3929 6.94012C18.3929 6.25695 17.8391 5.70312 17.1559 5.70312C16.4728 5.70312 15.9189 6.25695 15.9189 6.94012C15.9189 7.6233 16.4728 8.17712 17.1559 8.17712Z" fill="white"/>
</svg>
