<svg width="24" height="25" viewBox="0 0 24 25" fill="none" xmlns="http://www.w3.org/2000/svg">
<path d="M21.959 13.8014V21.1804H17.681V14.2954C17.681 12.5654 17.062 11.3854 15.514 11.3854C14.332 11.3854 13.628 12.1814 13.319 12.9504C13.206 13.2254 13.177 13.6084 13.177 13.9934V21.1804H8.897C8.897 21.1804 8.955 9.5204 8.897 8.3114H13.177V10.1354L13.149 10.1774H13.177V10.1354C13.745 9.2604 14.76 8.0094 17.033 8.0094C19.848 8.0094 21.959 9.8494 21.959 13.8014ZM4.421 2.1084C2.958 2.1084 2 3.0684 2 4.3314C2 5.5664 2.93 6.5554 4.365 6.5554H4.393C5.886 6.5554 6.813 5.5664 6.813 4.3314C6.787 3.0684 5.887 2.1084 4.422 2.1084H4.421ZM2.254 21.1804H6.532V8.3114H2.254V21.1804Z" fill="white"/>
</svg>
