<svg width="125" height="23" viewBox="0 0 125 23" fill="none" xmlns="http://www.w3.org/2000/svg">
<path d="M33.9504 19.3765H40.7767V21.4499H31.3984V1.92773H33.9504V19.3765Z" fill="black"/>
<path d="M48.7562 21.7063C47.3234 21.7063 46.0235 21.382 44.8539 20.7281C43.6843 20.0689 42.7645 19.1411 42.1 17.9423C41.4407 16.7381 41.1111 15.3425 41.1111 13.7529C41.1111 12.1792 41.4513 10.7942 42.1319 9.59535C42.8177 8.39117 43.7481 7.4661 44.9177 6.82014C46.0926 6.17685 47.4111 5.85254 48.8732 5.85254C50.3246 5.85254 51.6404 6.17685 52.818 6.82014C53.993 7.4661 54.9233 8.38851 55.6039 9.58472C56.2844 10.7756 56.6246 12.1659 56.6246 13.7529C56.6246 15.3425 56.2737 16.7381 55.572 17.9423C54.8755 19.1411 53.9292 20.0689 52.7329 20.7281C51.5421 21.382 50.2156 21.7063 48.7562 21.7063ZM48.7562 19.4628C49.6706 19.4628 50.5266 19.2501 51.3294 18.8248C52.1375 18.3942 52.7888 17.7482 53.2859 16.8896C53.7803 16.0257 54.0302 14.981 54.0302 13.7529C54.0302 12.5194 53.7856 11.4747 53.2965 10.6161C52.8127 9.75219 52.18 9.11155 51.3932 8.69155C50.6063 8.2742 49.7557 8.0642 48.8413 8.0642C47.9109 8.0642 47.0576 8.2742 46.2787 8.69155C45.5052 9.11155 44.8858 9.75219 44.4179 10.6161C43.9501 11.4747 43.7162 12.5194 43.7162 13.7529C43.7162 15.0022 43.9421 16.0549 44.3967 16.9109C44.8566 17.7695 45.4706 18.4101 46.2362 18.8354C47.0018 19.2554 47.8418 19.4628 48.7562 19.4628Z" fill="black"/>
<path d="M57.6052 13.7529C57.6052 12.1659 57.9189 10.7809 58.5516 9.59535C59.1895 8.40446 60.0721 7.4847 61.1992 6.83077C62.3316 6.1795 63.6288 5.85254 65.0909 5.85254C66.9756 5.85254 68.528 6.30976 69.7481 7.2242C70.9736 8.13863 71.7817 9.40928 72.1724 11.0308H69.4291C69.166 10.0951 68.6556 9.35877 67.898 8.81914C67.1457 8.28218 66.21 8.01104 65.0909 8.01104C63.6288 8.01104 62.4486 8.51079 61.5501 9.51029C60.6569 10.5098 60.2103 11.924 60.2103 13.7529C60.2103 15.5977 60.6569 17.0252 61.5501 18.038C62.4486 19.0454 63.6288 19.5478 65.0909 19.5478C66.21 19.5478 67.143 19.2873 67.8873 18.761C68.6316 18.2373 69.1447 17.4904 69.4291 16.5174H72.1724C71.7604 18.0911 70.939 19.3511 69.7056 20.2921C68.4721 21.2358 66.933 21.7063 65.0909 21.7063C63.6288 21.7063 62.3316 21.382 61.1992 20.7281C60.0721 20.0689 59.1895 19.1438 58.5516 17.9529C57.9189 16.7567 57.6052 15.3558 57.6052 13.7529Z" fill="black"/>
<path d="M82.7022 21.4512L76.6839 14.678V21.4512H74.132V0.727539H76.6839V12.913L82.5852 6.10783H86.1472L78.9168 13.753L86.1685 21.4512H82.7022Z" fill="black"/>
<path d="M91.4135 1.79102V13.5511C91.4135 14.7287 91.7006 15.6352 92.2748 16.2732C92.8543 16.9058 93.7049 17.2195 94.8267 17.2195C95.9458 17.2195 96.8045 16.9058 97.3999 16.2732C98.0007 15.6352 98.3037 14.7287 98.3037 13.5511V1.79102H103.089V13.5298C103.089 15.2816 102.711 16.7676 101.961 17.9851C101.217 19.1972 100.212 20.1117 98.9523 20.7284C97.6976 21.3398 96.2941 21.6428 94.7417 21.6428C93.1946 21.6428 91.8096 21.3424 90.5842 20.739C89.364 20.1303 88.3964 19.2158 87.6813 17.9957C86.9716 16.7702 86.618 15.2816 86.618 13.5298V1.79102H91.4135Z" fill="black"/>
<path d="M120 8.11765C120 9.2607 119.737 10.3027 119.213 11.2437C118.695 12.1874 117.895 12.9503 116.81 13.5298C115.725 14.104 114.38 14.3911 112.78 14.3911H109.813V21.4514H105.018V1.79102H112.78C114.346 1.79102 115.672 2.06482 116.757 2.60976C117.841 3.14938 118.652 3.89369 119.192 4.84269C119.729 5.79434 120 6.88422 120 8.11765ZM112.419 10.5845C113.333 10.5845 114.013 10.3718 114.46 9.94652C114.907 9.51589 115.13 8.90449 115.13 8.11765C115.13 7.33878 114.907 6.7327 114.46 6.29941C114.013 5.86877 113.333 5.65079 112.419 5.65079H109.813V10.5845H112.419Z" fill="black"/>
<mask id="mask0_2_17324" style="mask-type:luminance" maskUnits="userSpaceOnUse" x="1" y="1" width="22" height="22">
<path d="M1.44287 1.65723H22.0576V22.2719H1.44287V1.65723Z" fill="white"/>
</mask>
<g mask="url(#mask0_2_17324)">
<mask id="mask1_2_17324" style="mask-type:luminance" maskUnits="userSpaceOnUse" x="1" y="1" width="22" height="22">
<path d="M11.7484 1.6582C6.0571 1.6582 1.44238 6.27292 1.44238 11.9669C1.44238 17.6582 6.0571 22.2729 11.7484 22.2729C17.4424 22.2729 22.0571 17.6582 22.0571 11.9669C22.0571 6.27292 17.4424 1.6582 11.7484 1.6582Z" fill="white"/>
</mask>
<g mask="url(#mask1_2_17324)">
<path d="M1.44238 1.6582H22.0571V22.2729H1.44238V1.6582Z" fill="black"/>
</g>
</g>
<mask id="mask2_2_17324" style="mask-type:luminance" maskUnits="userSpaceOnUse" x="0" y="7" width="20" height="13">
<path d="M0 7.48242H19.3414V19.1521H0V7.48242Z" fill="white"/>
</mask>
<g mask="url(#mask2_2_17324)">
<path fill-rule="evenodd" clip-rule="evenodd" d="M0.411766 18.7561C0.786579 19.1309 1.39798 19.1309 1.77279 18.7561L6.90853 13.6203L10.5636 16.8687C10.9544 17.2143 11.5498 17.1877 11.906 16.8076L17.4618 10.8797V11.8154C17.4618 12.347 17.8924 12.7777 18.4241 12.7777C18.9584 12.7777 19.389 12.347 19.389 11.8154V8.44471C19.389 7.91306 18.9584 7.48242 18.4241 7.48242H15.0561C14.5218 7.48242 14.0911 7.91306 14.0911 8.44471C14.0911 8.97636 14.5218 9.40699 15.0561 9.40699H16.2018L11.1431 14.8059L7.50929 11.5761C7.12916 11.2385 6.54966 11.2545 6.18814 11.616L0.411766 17.395C0.0342942 17.7698 0.0342942 18.3786 0.411766 18.7561Z" fill="white"/>
</g>
</svg>
