<svg width="123" height="23" viewBox="0 0 123 23" fill="none" xmlns="http://www.w3.org/2000/svg">
<path d="M34.7993 19.1154H41.7964V21.2407H32.1836V1.23047H34.7993V19.1154Z" fill="white"/>
<path d="M49.9751 21.5031C48.5065 21.5031 47.1741 21.1707 45.9752 20.5004C44.7764 19.8247 43.8336 18.8737 43.1524 17.6449C42.4767 16.4106 42.1389 14.9801 42.1389 13.3508C42.1389 11.7377 42.4876 10.3182 43.1851 9.08931C43.8881 7.85502 44.8418 6.90683 46.0406 6.24472C47.245 5.58534 48.5964 5.25293 50.095 5.25293C51.5827 5.25293 52.9314 5.58534 54.1385 6.24472C55.3428 6.90683 56.2964 7.8523 56.9939 9.07842C57.6915 10.2991 58.0402 11.7241 58.0402 13.3508C58.0402 14.9801 57.6806 16.4106 56.9613 17.6449C56.2474 18.8737 55.2774 19.8247 54.0513 20.5004C52.8306 21.1707 51.471 21.5031 49.9751 21.5031ZM49.9751 19.2034C50.9124 19.2034 51.7898 18.9854 52.6126 18.5495C53.4409 18.1081 54.1085 17.446 54.618 16.5659C55.1248 15.6804 55.3809 14.6096 55.3809 13.3508C55.3809 12.0865 55.1302 11.0157 54.6289 10.1356C54.133 9.25007 53.4845 8.59342 52.678 8.16291C51.8715 7.73514 50.9996 7.51988 50.0623 7.51988C49.1087 7.51988 48.234 7.73514 47.4357 8.16291C46.6428 8.59342 46.0079 9.25007 45.5284 10.1356C45.0488 11.0157 44.8091 12.0865 44.8091 13.3508C44.8091 14.6314 45.0407 15.7103 45.5066 16.5877C45.978 17.4678 46.6074 18.1244 47.3921 18.5604C48.1768 18.9909 49.0378 19.2034 49.9751 19.2034Z" fill="white"/>
<path d="M59.0452 13.3508C59.0452 11.7241 59.3667 10.3045 60.0152 9.08931C60.6692 7.86865 61.5738 6.9259 62.729 6.25562C63.8898 5.58807 65.2194 5.25293 66.718 5.25293C68.6498 5.25293 70.241 5.72158 71.4917 6.65888C72.7478 7.59618 73.5761 8.89859 73.9766 10.5607H71.1647C70.895 9.60156 70.3718 8.84682 69.5953 8.2937C68.8242 7.74331 67.8651 7.46539 66.718 7.46539C65.2194 7.46539 64.0096 7.97763 63.0887 9.00212C62.1732 10.0266 61.7154 11.4762 61.7154 13.3508C61.7154 15.2417 62.1732 16.7049 63.0887 17.743C64.0096 18.7756 65.2194 19.2906 66.718 19.2906C67.8651 19.2906 68.8215 19.0236 69.5844 18.4841C70.3473 17.9473 70.8732 17.1817 71.1647 16.1844H73.9766C73.5543 17.7975 72.7123 19.089 71.4481 20.0535C70.1838 21.0208 68.6062 21.5031 66.718 21.5031C65.2194 21.5031 63.8898 21.1707 62.729 20.5004C61.5738 19.8247 60.6692 18.8765 60.0152 17.6558C59.3667 16.4297 59.0452 14.9938 59.0452 13.3508Z" fill="white"/>
<path d="M84.7698 21.2418L78.6011 14.2993V21.2418H75.9854V0H78.6011V12.49L84.6499 5.5148H88.301L80.8898 13.3511L88.3228 21.2418H84.7698Z" fill="white"/>
<path d="M93.6988 1.08984V13.1439C93.6988 14.351 93.9931 15.2801 94.5816 15.934C95.1756 16.5825 96.0475 16.904 97.1973 16.904C98.3444 16.904 99.2245 16.5825 99.8349 15.934C100.451 15.2801 100.761 14.351 100.761 13.1439V1.08984H105.666V13.1221C105.666 14.9177 105.279 16.4408 104.51 17.6887C103.748 18.9312 102.718 19.8685 101.426 20.5006C100.14 21.1273 98.7014 21.4379 97.1101 21.4379C95.5244 21.4379 94.1048 21.1301 92.8487 20.5115C91.5981 19.8876 90.6063 18.9503 89.8733 17.6996C89.1458 16.4436 88.7834 14.9177 88.7834 13.1221V1.08984H93.6988Z" fill="white"/>
<path d="M123 7.57464C123 8.74627 122.73 9.81435 122.193 10.7789C121.662 11.7462 120.842 12.5282 119.73 13.1221C118.619 13.7107 117.24 14.0049 115.6 14.0049H112.559V21.2418H107.644V1.08984H115.6C117.205 1.08984 118.564 1.37049 119.676 1.92905C120.788 2.48217 121.619 3.24509 122.172 4.21781C122.722 5.19325 123 6.31038 123 7.57464ZM115.229 10.1032C116.166 10.1032 116.864 9.88519 117.322 9.44924C117.779 9.00784 118.008 8.38116 118.008 7.57464C118.008 6.7763 117.779 6.15507 117.322 5.71094C116.864 5.26954 116.166 5.04612 115.229 5.04612H112.559V10.1032H115.229Z" fill="white"/>
<mask id="mask0_1_13830" style="mask-type:luminance" maskUnits="userSpaceOnUse" x="1" y="0" width="22" height="23">
<path d="M1.47906 0.952148H22.6092V22.0822H1.47906V0.952148Z" fill="white"/>
</mask>
<g mask="url(#mask0_1_13830)">
<mask id="mask1_1_13830" style="mask-type:luminance" maskUnits="userSpaceOnUse" x="1" y="0" width="22" height="23">
<path d="M12.0423 0.953125C6.20873 0.953125 1.47864 5.68321 1.47864 11.5195C1.47864 17.3531 6.20873 22.0832 12.0423 22.0832C17.8786 22.0832 22.6087 17.3531 22.6087 11.5195C22.6087 5.68321 17.8786 0.953125 12.0423 0.953125Z" fill="white"/>
</mask>
<g mask="url(#mask1_1_13830)">
<path d="M1.47864 0.953125H22.6087V22.0832H1.47864V0.953125Z" fill="white"/>
</g>
</g>
<mask id="mask2_1_13830" style="mask-type:luminance" maskUnits="userSpaceOnUse" x="0" y="6" width="20" height="13">
<path d="M0 6.9248H19.825V18.8863H0V6.9248Z" fill="white"/>
</mask>
<g mask="url(#mask2_1_13830)">
<path fill-rule="evenodd" clip-rule="evenodd" d="M0.422017 18.4803C0.806201 18.8645 1.43288 18.8645 1.81707 18.4803L7.0812 13.2161L10.8277 16.5457C11.2282 16.9 11.8385 16.8727 12.2036 16.4831L17.8983 10.407V11.3661C17.8983 11.911 18.3397 12.3524 18.8846 12.3524C19.4323 12.3524 19.8737 11.911 19.8737 11.3661V7.91115C19.8737 7.36621 19.4323 6.9248 18.8846 6.9248H15.4324C14.8848 6.9248 14.4434 7.36621 14.4434 7.91115C14.4434 8.45609 14.8848 8.89749 15.4324 8.89749H16.6068L11.4217 14.4314L7.69698 11.1209C7.30735 10.7748 6.71336 10.7912 6.3428 11.1617L0.422017 17.0852C0.0351088 17.4694 0.0351088 18.0934 0.422017 18.4803Z" fill="#1B1B1B"/>
</g>
</svg>
