<svg width="24" height="24" viewBox="0 0 24 24" fill="none" xmlns="http://www.w3.org/2000/svg">
<path d="M10.95 16.865L15.908 11.908L15.188 11.188L10.944 15.433L8.806 13.294L8.092 14.008L10.95 16.865ZM6.615 21C6.155 21 5.771 20.846 5.463 20.538C5.155 20.23 5.00067 19.8457 5 19.385V4.615C5 4.155 5.15433 3.771 5.463 3.463C5.77167 3.155 6.15567 3.00067 6.615 3H14.5L19 7.5V19.385C19 19.845 18.846 20.229 18.538 20.537C18.23 20.845 17.8457 20.9993 17.385 21H6.615ZM14 8V4H6.615C6.46167 4 6.32067 4.064 6.192 4.192C6.06333 4.32 5.99933 4.461 6 4.615V19.385C6 19.5383 6.064 19.6793 6.192 19.808C6.32 19.9367 6.461 20.0007 6.615 20H17.385C17.5383 20 17.6793 19.936 17.808 19.808C17.9367 19.68 18.0007 19.539 18 19.385V8H14Z" fill="#666666"/>
</svg>
