<svg width="20" height="19" viewBox="0 0 20 19" fill="none" xmlns="http://www.w3.org/2000/svg">
<path d="M10.0149 2.68262C7.53244 2.68262 5.51494 4.70012 5.51494 7.18262V9.35012C5.51494 9.80762 5.31994 10.5051 5.08744 10.8951L4.22494 12.3276C3.69244 13.2126 4.05994 14.1951 5.03494 14.5251C8.26744 15.6051 11.7549 15.6051 14.9874 14.5251C15.8949 14.2251 16.2924 13.1526 15.7974 12.3276L14.9349 10.8951C14.7099 10.5051 14.5149 9.80762 14.5149 9.35012V7.18262C14.5149 4.70762 12.4899 2.68262 10.0149 2.68262Z" stroke="black" stroke-width="1.5" stroke-miterlimit="10" stroke-linecap="round"/>
<path d="M11.4024 2.90008C11.1699 2.83258 10.9299 2.78008 10.6824 2.75008C9.96244 2.66008 9.27244 2.71258 8.62744 2.90008C8.84494 2.34508 9.38494 1.95508 10.0149 1.95508C10.6449 1.95508 11.1849 2.34508 11.4024 2.90008Z" stroke="black" stroke-width="1.5" stroke-miterlimit="10" stroke-linecap="round" stroke-linejoin="round"/>
<path d="M12.2649 14.7949C12.2649 16.0324 11.2524 17.0449 10.0149 17.0449C9.39989 17.0449 8.82989 16.7899 8.42489 16.3849C8.01989 15.9799 7.76489 15.4099 7.76489 14.7949" stroke="black" stroke-width="1.5" stroke-miterlimit="10"/>
</svg>
