<svg width="24" height="24" viewBox="0 0 24 24" fill="none" xmlns="http://www.w3.org/2000/svg">
<path d="M10.8653 6.34286C10.7475 6.00815 10.5287 5.71824 10.2391 5.51313C9.94959 5.30802 9.60353 5.19781 9.24869 5.19771H7.92012C7.54322 5.19877 7.17996 5.33883 6.89991 5.59107C6.61985 5.8433 6.44269 6.18998 6.40235 6.56472C6.36201 6.93945 6.46133 7.3159 6.68128 7.62196C6.90124 7.92802 7.22637 8.14218 7.5944 8.22343L9.61383 8.66571C10.027 8.7559 10.3923 8.99566 10.6395 9.33888C10.8866 9.68211 10.9981 10.1046 10.9526 10.5251C10.9071 10.9455 10.7077 11.3344 10.3929 11.6168C10.078 11.8991 9.66992 12.0552 9.24698 12.0549H8.10355C7.74912 12.055 7.40337 11.9453 7.11387 11.7408C6.82436 11.5364 6.60535 11.2472 6.48698 10.9131M8.67783 5.19771V3.48343M8.67783 13.7691V12.0549M11.947 23.1411V14.1411C11.947 13.5728 12.1727 13.0278 12.5746 12.6259C12.9765 12.2241 13.5215 11.9983 14.0898 11.9983C14.6582 11.9983 15.2032 12.2241 15.6051 12.6259C16.0069 13.0278 16.2327 13.5728 16.2327 14.1411V18.8554H19.6613C20.5706 18.8554 21.4426 19.2167 22.0856 19.8596C22.7286 20.5026 23.0898 21.3747 23.0898 22.284V23.1411" stroke="#666666" stroke-linecap="round" stroke-linejoin="round"/>
<path d="M8.67945 16.3954C7.09782 16.3952 5.55393 15.9122 4.25423 15.0109C2.95452 14.1096 1.96093 12.833 1.40631 11.3518C0.851685 9.87055 0.762458 8.25533 1.15056 6.72204C1.53866 5.18876 2.38559 3.81049 3.57811 2.77152C4.77063 1.73254 6.25191 1.08238 7.82391 0.907951C9.3959 0.733524 10.9837 1.04315 12.375 1.79543C13.7662 2.5477 14.8947 3.70678 15.6095 5.11769C16.3243 6.5286 16.5913 8.1241 16.3749 9.69086" stroke="#666666" stroke-linecap="round"/>
</svg>
