<svg width="24" height="25" viewBox="0 0 24 25" fill="none" xmlns="http://www.w3.org/2000/svg">
<path d="M22 5.98871C21.2504 6.31608 20.4565 6.53074 19.644 6.62571C20.4968 6.12494 21.138 5.33081 21.448 4.39171C20.64 4.86204 19.7587 5.19331 18.841 5.37171C18.4545 4.96691 17.9897 4.64509 17.4748 4.42589C16.9598 4.20668 16.4056 4.09467 15.846 4.09671C13.58 4.09671 11.743 5.90671 11.743 8.13671C11.743 8.45271 11.779 8.76171 11.849 9.05671C10.2236 8.9794 8.63212 8.56411 7.17617 7.83735C5.72022 7.11058 4.43176 6.08829 3.393 4.83571C3.02883 5.45011 2.83742 6.15149 2.839 6.86571C2.8397 7.53367 3.00683 8.19094 3.32529 8.7781C3.64375 9.36526 4.1035 9.86382 4.663 10.2287C4.01248 10.2077 3.37602 10.034 2.805 9.72171V9.77171C2.805 11.7297 4.22 13.3627 6.095 13.7347C5.74261 13.8282 5.37958 13.8756 5.015 13.8757C4.75 13.8757 4.493 13.8507 4.242 13.8007C4.51008 14.6086 5.02311 15.313 5.70982 15.816C6.39653 16.3191 7.22284 16.5958 8.074 16.6077C6.61407 17.7323 4.82182 18.3398 2.979 18.3347C2.647 18.3347 2.321 18.3147 2 18.2787C3.88125 19.4694 6.06259 20.1 8.289 20.0967C15.836 20.0967 19.962 13.9397 19.962 8.60071L19.948 8.07771C20.7529 7.51138 21.4481 6.80355 22 5.98871Z" fill="white"/>
</svg>
