<svg width="25" height="25" viewBox="0 0 25 25" fill="none" xmlns="http://www.w3.org/2000/svg">
<path d="M16.7 16.0998C16.5409 16.0998 16.3883 16.163 16.2758 16.2755C16.1632 16.3881 16.1 16.5407 16.1 16.6998C16.1 16.8589 16.1632 17.0115 16.2758 17.1241C16.3883 17.2366 16.5409 17.2998 16.7 17.2998H19.1C19.2592 17.2998 19.4118 17.2366 19.5243 17.1241C19.6368 17.0115 19.7 16.8589 19.7 16.6998C19.7 16.5407 19.6368 16.3881 19.5243 16.2755C19.4118 16.163 19.2592 16.0998 19.1 16.0998H16.7ZM2.90002 8.59981C2.90002 7.72459 3.2477 6.88522 3.86657 6.26635C4.48544 5.64748 5.32481 5.2998 6.20002 5.2998H18.8C19.6752 5.2998 20.5146 5.64748 21.1335 6.26635C21.7523 6.88522 22.1 7.72459 22.1 8.59981V16.3998C22.1 17.275 21.7523 18.1144 21.1335 18.7333C20.5146 19.3521 19.6752 19.6998 18.8 19.6998H6.20002C5.32481 19.6998 4.48544 19.3521 3.86657 18.7333C3.2477 18.1144 2.90002 17.275 2.90002 16.3998V8.59981ZM6.20002 6.4998C5.64307 6.4998 5.10893 6.72105 4.7151 7.11488C4.32127 7.50871 4.10002 8.04285 4.10002 8.59981V10.0998H20.9V8.59981C20.9 8.04285 20.6788 7.50871 20.2849 7.11488C19.8911 6.72105 19.357 6.4998 18.8 6.4998H6.20002ZM20.9 11.2998H4.10002V16.3998C4.10002 17.559 5.04082 18.4998 6.20002 18.4998H18.8C19.357 18.4998 19.8911 18.2786 20.2849 17.8847C20.6788 17.4909 20.9 16.9568 20.9 16.3998V11.2998Z" fill="#1B1B1B"/>
</svg>
