<svg width="24" height="25" viewBox="0 0 24 25" fill="none" xmlns="http://www.w3.org/2000/svg">
<path d="M17.812 5.09866H6.145C3.855 5.09866 2 6.93366 2 9.19766V14.9657C2 17.2297 3.856 19.0657 6.145 19.0657H17.812C20.102 19.0657 21.957 17.2297 21.957 14.9657V9.19766C21.957 6.93366 20.101 5.09766 17.812 5.09766V5.09866ZM15.009 12.3617L9.552 14.9367C9.51872 14.9527 9.48192 14.96 9.44503 14.958C9.40815 14.956 9.37237 14.9447 9.34103 14.9251C9.3097 14.9056 9.28382 14.8784 9.2658 14.8461C9.24779 14.8139 9.23822 14.7776 9.238 14.7407V9.43166C9.23867 9.39453 9.24872 9.35818 9.26722 9.32598C9.28573 9.29379 9.31208 9.2668 9.34382 9.24753C9.37556 9.22827 9.41167 9.21735 9.44877 9.2158C9.48587 9.21425 9.52276 9.22211 9.556 9.23866L15.014 11.9737C15.0504 11.9918 15.0809 12.0198 15.102 12.0545C15.1232 12.0892 15.1341 12.1291 15.1336 12.1697C15.1331 12.2103 15.1211 12.25 15.0991 12.2841C15.077 12.3182 15.0458 12.3455 15.009 12.3627V12.3617Z" fill="white"/>
</svg>
