<svg width="12" height="12" viewBox="0 0 12 12" fill="none" xmlns="http://www.w3.org/2000/svg">
<path d="M2.69995 1.05H9.29995C9.84995 1.05 10.3 1.5 10.3 2.05V3.15C10.3 3.55 10.05 4.05 9.79995 4.3L7.64995 6.2C7.34995 6.45 7.14995 6.95 7.14995 7.35V9.5C7.14995 9.8 6.94995 10.2 6.69995 10.35L5.99995 10.8C5.34995 11.2 4.44995 10.75 4.44995 9.95V7.3C4.44995 6.95 4.24995 6.5 4.04995 6.25L2.14995 4.25C1.89995 4 1.69995 3.55 1.69995 3.25V2.1C1.69995 1.5 2.14995 1.05 2.69995 1.05Z" stroke="#1B1B1B" stroke-width="1.5" stroke-miterlimit="10" stroke-linecap="round" stroke-linejoin="round"/>
<path d="M5.465 1.05L3 5" stroke="#1B1B1B" stroke-width="1.5" stroke-miterlimit="10" stroke-linecap="round" stroke-linejoin="round"/>
</svg>
