<svg width="24" height="24" viewBox="0 0 24 24" fill="none" xmlns="http://www.w3.org/2000/svg">
<path d="M16.1999 15.6C16.0408 15.6 15.8882 15.6632 15.7756 15.7757C15.6631 15.8882 15.5999 16.0409 15.5999 16.2C15.5999 16.3591 15.6631 16.5117 15.7756 16.6243C15.8882 16.7368 16.0408 16.8 16.1999 16.8H18.5999C18.759 16.8 18.9116 16.7368 19.0242 16.6243C19.1367 16.5117 19.1999 16.3591 19.1999 16.2C19.1999 16.0409 19.1367 15.8882 19.0242 15.7757C18.9116 15.6632 18.759 15.6 18.5999 15.6H16.1999ZM2.3999 8.09999C2.3999 7.22477 2.74758 6.38541 3.36645 5.76654C3.98532 5.14767 4.82469 4.79999 5.6999 4.79999H18.2999C19.1751 4.79999 20.0145 5.14767 20.6334 5.76654C21.2522 6.38541 21.5999 7.22477 21.5999 8.09999V15.9C21.5999 16.7752 21.2522 17.6146 20.6334 18.2334C20.0145 18.8523 19.1751 19.2 18.2999 19.2H5.6999C4.82469 19.2 3.98532 18.8523 3.36645 18.2334C2.74758 17.6146 2.3999 16.7752 2.3999 15.9V8.09999ZM5.6999 5.99999C5.14295 5.99999 4.6088 6.22124 4.21498 6.61506C3.82115 7.00889 3.5999 7.54303 3.5999 8.09999V9.59999H20.3999V8.09999C20.3999 7.54303 20.1786 7.00889 19.7848 6.61506C19.391 6.22124 18.8569 5.99999 18.2999 5.99999H5.6999ZM20.3999 10.8H3.5999V15.9C3.5999 17.0592 4.5407 18 5.6999 18H18.2999C18.8569 18 19.391 17.7787 19.7848 17.3849C20.1786 16.9911 20.3999 16.4569 20.3999 15.9V10.8Z" fill="#666666"/>
</svg>
