<svg width="14" height="17" viewBox="0 0 14 17" fill="none" xmlns="http://www.w3.org/2000/svg">
<g opacity="0.2">
<path d="M0.275536 12.3113C0.231612 12.3549 0.192996 12.403 0.158579 12.4544C0.14353 12.4769 0.13303 12.5013 0.119905 12.5249C0.103631 12.5551 0.0858969 12.5836 0.0723054 12.6157C0.0598223 12.6464 0.0524146 12.6782 0.0430814 12.71C0.0352648 12.7366 0.0248816 12.7624 0.01969 12.7901C-0.00428468 12.911 -0.00428468 13.0359 0.01969 13.1568C0.0248816 13.1845 0.0352648 13.2104 0.0430814 13.237C0.0526479 13.2688 0.0598223 13.3008 0.0723054 13.3313C0.0858969 13.3631 0.103631 13.3919 0.119905 13.422C0.13303 13.4455 0.14353 13.47 0.158579 13.4926C0.193054 13.544 0.231787 13.592 0.275536 13.6357L3.30696 16.6671C3.67218 17.0328 4.26519 17.0328 4.63099 16.6671C4.81375 16.4844 4.90533 16.2448 4.90533 16.0052C4.90533 15.7657 4.81375 15.526 4.63099 15.3433L3.19718 13.9098H13.0641C13.5806 13.9098 14.0004 13.4907 14.0004 12.9737C14.0004 12.4568 13.5806 12.0374 13.0641 12.0374H3.19718L4.63099 10.6041C4.81375 10.4212 4.90533 10.1817 4.90533 9.94211C4.90533 9.70259 4.81375 9.46308 4.63099 9.28015C4.2653 8.9144 3.67218 8.9144 3.30696 9.28015L0.275536 12.3113Z" fill="black"/>
<path d="M9.36948 0.274201C9.00379 0.639829 9.00379 1.23231 9.36948 1.59788L10.8031 3.03152L0.936353 3.03152C0.419761 3.03152 0 3.45093 0 3.96787C0 4.48487 0.419527 4.90405 0.936353 4.90405H10.8031L9.36948 6.33751C9.00379 6.70314 9.00379 7.2958 9.36948 7.66119C9.73528 8.027 10.3284 8.027 10.6934 7.66119L13.7249 4.62989C13.7688 4.58631 13.8076 4.53825 13.8421 4.4868C13.8571 4.46399 13.8675 4.43984 13.8806 4.4161C13.8968 4.38594 13.9149 4.35748 13.928 4.32545C13.9406 4.29489 13.9479 4.26263 13.9572 4.23124C13.9652 4.20429 13.9758 4.17875 13.9809 4.15092C13.9929 4.09037 13.9997 4.02906 13.9997 3.96758C13.9997 3.90627 13.9929 3.84479 13.9809 3.78418C13.9758 3.75659 13.9651 3.73099 13.9572 3.70409C13.9479 3.67248 13.9406 3.64028 13.928 3.60989C13.9149 3.57792 13.8968 3.54928 13.8806 3.51912C13.8674 3.49561 13.8569 3.47141 13.8421 3.44866C13.8076 3.39721 13.7688 3.3492 13.7249 3.30545L10.6934 0.273794C10.3285 -0.0914259 9.73528 -0.0914268 9.36948 0.274201Z" fill="black"/>
</g>
</svg>
