<svg width="20" height="21" viewBox="0 0 20 21" fill="none" xmlns="http://www.w3.org/2000/svg">
<path d="M17.0834 6.3335L17.0834 14.6668C17.0834 17.1668 15.8334 18.8335 12.9167 18.8335L7.08335 18.8335C4.16669 18.8335 2.91669 17.1668 2.91669 14.6668L2.91669 6.3335C2.91669 3.8335 4.16669 2.16683 7.08335 2.16683L12.9167 2.16683C15.8334 2.16683 17.0834 3.8335 17.0834 6.3335Z" stroke="#7D2ECC" stroke-width="1.5" stroke-miterlimit="10" stroke-linecap="round" stroke-linejoin="round"/>
<path d="M12.5 10.5C12.5 9.11929 11.3807 8 10 8C8.61929 8 7.5 9.11929 7.5 10.5C7.5 11.8807 8.61929 13 10 13C11.3807 13 12.5 11.8807 12.5 10.5Z" stroke="#7D2ECC" stroke-width="1.5" stroke-miterlimit="10" stroke-linecap="round" stroke-linejoin="round"/>
<path d="M5 13.4167V14.6667C5 15.8167 5.93333 16.75 7.08333 16.75H8.33333" stroke="#7D2ECC" stroke-width="1.5" stroke-miterlimit="10" stroke-linecap="round" stroke-linejoin="round"/>
<path d="M5 7.5835V6.3335C5 5.1835 5.93333 4.25016 7.08333 4.25016L8.33333 4.25016" stroke="#7D2ECC" stroke-width="1.5" stroke-miterlimit="10" stroke-linecap="round" stroke-linejoin="round"/>
<path d="M15 13.4167V14.6667C15 15.8167 14.0667 16.75 12.9167 16.75H11.6667" stroke="#7D2ECC" stroke-width="1.5" stroke-miterlimit="10" stroke-linecap="round" stroke-linejoin="round"/>
<path d="M15 7.5835V6.3335C15 5.1835 14.0667 4.25016 12.9167 4.25016H11.6667" stroke="#7D2ECC" stroke-width="1.5" stroke-miterlimit="10" stroke-linecap="round" stroke-linejoin="round"/>
</svg>
