<svg width="140" height="140" viewBox="0 0 140 140" fill="none" xmlns="http://www.w3.org/2000/svg">
<path d="M52.5 58.3337L71.505 72.5903C72.6824 73.4734 74.1501 73.8787 75.6138 73.7251C77.0775 73.5715 78.4291 72.8702 79.3975 71.762L116.667 29.167" stroke="#0057DB" stroke-width="4" stroke-linecap="round"/>
<path d="M122.5 70C122.5 80.9698 119.064 91.664 112.675 100.581C106.285 109.498 97.263 116.189 86.8754 119.715C76.4878 123.241 65.2566 123.425 54.7593 120.24C44.2619 117.056 35.0258 110.663 28.3481 101.96C21.6704 93.2568 17.8866 82.6806 17.5281 71.7167C17.1696 60.7528 20.2544 49.9521 26.3493 40.8314C32.4442 31.7107 41.243 24.7283 51.5099 20.8648C61.7768 17.0013 72.9959 16.4509 83.5917 19.2909" stroke="#0057DB" stroke-width="4" stroke-linecap="round"/>
</svg>
