<svg width="64" height="64" viewBox="0 0 64 64" fill="none" xmlns="http://www.w3.org/2000/svg">
<path d="M29.645 25.261C30.2258 24.6816 30.9999 24.3368 31.8191 24.2925C32.6383 24.2482 33.445 24.5076 34.085 25.021L34.3543 25.261L41.885 32.781C42.3683 33.2598 42.6504 33.9052 42.6734 34.5851C42.6965 35.2651 42.4588 35.9281 42.009 36.4386C41.5593 36.949 40.9314 37.2682 40.254 37.3309C39.5765 37.3936 38.9007 37.1949 38.365 36.7757L38.1143 36.5543L34.6663 33.109V55.9997C34.6655 56.6794 34.4053 57.3331 33.9387 57.8273C33.4721 58.3216 32.8344 58.619 32.1559 58.6588C31.4774 58.6986 30.8093 58.4779 30.2881 58.0416C29.7669 57.6054 29.4319 56.9866 29.3516 56.3117L29.333 55.9997V33.109L25.885 36.5543C25.4057 37.0367 24.7603 37.3178 24.0807 37.3402C23.4011 37.3625 22.7386 37.1243 22.2287 36.6744C21.7189 36.2245 21.4002 35.5968 21.3377 34.9197C21.2753 34.2426 21.4739 33.5672 21.893 33.0317L22.1143 32.7783L29.645 25.261ZM30.6663 5.33301C38.0903 5.33301 44.4263 9.99967 46.8956 16.565C50.585 17.5725 53.7915 19.8683 55.9341 23.0363C58.0767 26.2043 59.0136 30.0349 58.5751 33.8342C58.1366 37.6335 56.3518 41.1501 53.5439 43.7467C50.736 46.3434 47.0909 47.8484 43.269 47.989L42.6663 47.9997H39.9996V42.6663C41.5377 42.6665 43.0432 42.2233 44.3358 41.3898C45.6284 40.5563 46.6534 39.3679 47.2879 37.9668C47.9225 36.5658 48.1397 35.0115 47.9136 33.4902C47.6874 31.9688 47.0276 30.5449 46.013 29.389L45.653 29.005L38.1223 21.4877C36.5619 19.9303 34.4665 19.0261 32.2629 18.9592C30.0593 18.8923 27.913 19.6678 26.261 21.1277L25.877 21.4877L18.3463 29.0077C17.2605 30.0924 16.5096 31.4666 16.1832 32.9664C15.8569 34.4661 15.9689 36.028 16.5058 37.4659C17.0427 38.9038 17.9819 40.1568 19.2113 41.0756C20.4408 41.9944 21.9086 42.5401 23.4396 42.6477L23.9996 42.6663V47.9997H18.6663C15.6015 48.0017 12.6296 46.9478 10.2508 45.0155C7.87198 43.0831 6.23148 40.3902 5.60541 37.3901C4.97933 34.3899 5.40592 31.2657 6.81336 28.5432C8.22081 25.8208 10.5232 23.6662 13.333 22.4423C13.3919 17.8842 15.244 13.5327 18.4883 10.3304C21.7326 7.12803 26.1077 5.33263 30.6663 5.33301Z" fill="#0057DB"/>
</svg>
